<?xml version="1.0" encoding="utf-8"?>
<!-- Generator: Adobe Illustrator 19.2.1, SVG Export Plug-In . SVG Version: 6.00 Build 0)  -->
<svg version="1.1" id="layer" xmlns="http://www.w3.org/2000/svg" xmlns:xlink="http://www.w3.org/1999/xlink" x="0px" y="0px"
	 viewBox="0 0 652 652" style="enable-background:new 0 0 652 652;" xml:space="preserve">
<style type="text/css">
	.st0{fill:#285AE6;}
</style>
<path d="M51.6,270.6H27V246h12.3h12.3V270.6z M627,382.4h-12.3h-12.3V407H627V382.4z"/>
<path class="st0" d="M51.6,370.8H27v-88.5h12.3h12.3V370.8z M165.1,280.3c18.2,0,29.1,12.7,29.1,32.7v57.8h-24.6v-52.7
	c0-9.5-4.2-15.8-12.7-15.8c-6.3,0-12.1,4-13.7,11.5v57h-24.7v-52.7c0-9.5-4-15.8-12.5-15.8c-6.3,0-12.3,4-13.9,11.5v57H67.7v-88.5
	h24.6v7.3c4.4-5.5,12.5-9.3,22.4-9.3c10.5,0,18.8,4.8,23.8,11.3C144.1,285.2,152.6,280.3,165.1,280.3 M234.5,407H210V282.3h24.6v7.3
	c4-4.8,12.7-9.3,22.2-9.3c25.7,0,40.4,21.4,40.4,46.3c0,24.9-14.7,46.1-40.4,46.1c-9.5,0-18.2-4.6-22.2-9.3V407z M234.5,341.1
	c3,6.1,9.5,10.3,16.6,10.3c13.3,0,21.2-10.7,21.2-24.7c0-14.3-7.9-24.9-21.2-24.9c-7.3,0-13.7,4.4-16.6,10.3V341.1z M330,332.2
	c2,14.5,12.5,20.4,25.5,20.4c9.7,0,16.6-2.2,25.3-7.7V365c-7.3,5.3-17.2,7.7-29.1,7.7c-26.9,0-45.3-17.4-45.3-45.5
	c0-27.7,17.4-46.9,41.6-46.9c25.7,0,39,17.8,39,44v7.9H330z M330.8,316.1h33.5c-0.6-9.5-5.9-16.2-15.6-16.2
	C340.5,299.9,333.6,305,330.8,316.1 M453.9,306.4c-3.4-2-7.7-3-12.3-3c-8.3,0-15,4.4-16.8,12.5v54.8h-24.6v-88.5h24.6v8.7
	c3.8-6.3,11.1-10.7,19.8-10.7c4.2,0,7.9,0.8,9.3,1.6V306.4z M492.1,370.8l-33.5-88.5h25.7l20.4,58.8l20-58.8h24.7l-33.7,88.5H492.1z
	 M602.5,315.5c0-8.5-7.3-13.9-19.8-13.9c-8.9,0-17.2,2.6-24.2,7.1v-21.2c6.3-4,17.8-7.3,29.5-7.3c24.4,0,39,12.5,39,34.1v56.4h-24.5
	V366c-3,3-11.7,6.3-21.4,6.3c-17.8,0-32.7-10.3-32.7-28.7c0-16.8,14.9-28.3,34.3-28.3c7.7,0,16.2,2.6,19.8,5.2V315.5z M602.5,340.3
	c-2.2-4.8-8.7-7.7-15.6-7.7c-7.7,0-15.6,3.4-15.6,10.9c0,7.7,7.9,10.9,15.6,10.9c6.9,0,13.5-3,15.6-7.7V340.3z"/>
</svg>
